<?xml version="1.0" encoding="utf-8"?>
<svg width="44px" height="44px" viewbox="0 0 44 44" version="1.1" xmlns:xlink="http://www.w3.org/1999/xlink" xmlns="http://www.w3.org/2000/svg">
  <defs>
    <linearGradient x1="0.8472656" y1="0.77871096" x2="0.15651041" y2="0" id="gradient_1">
      <stop offset="0" stop-color="#686EE7" />
      <stop offset="1" stop-color="#FB61E2" />
    </linearGradient>
  </defs>
  <g id="transfer">
    <path d="M11.999 0L32.001 0Q32.2956 0 32.5898 0.0144533Q32.884 0.0289066 33.1771 0.0577785Q33.4702 0.0866503 33.7616 0.129871Q34.053 0.173092 34.3419 0.230557Q34.6308 0.288023 34.9165 0.359595Q35.2022 0.431167 35.4841 0.516673Q35.766 0.602179 36.0433 0.701413Q36.3207 0.800647 36.5928 0.913369Q36.865 1.02609 37.1312 1.15203Q37.3975 1.27797 37.6573 1.41683Q37.9171 1.55568 38.1697 1.70711Q38.4224 1.85855 38.6673 2.0222Q38.9122 2.18584 39.1488 2.36131Q39.3854 2.53678 39.6131 2.72365Q39.8408 2.91051 40.059 3.10833Q40.2773 3.30614 40.4856 3.51443Q40.6939 3.72271 40.8917 3.94096Q41.0895 4.15922 41.2764 4.38691Q41.4632 4.61461 41.6387 4.8512Q41.8142 5.0878 41.9778 5.33271Q42.1414 5.57763 42.2929 5.83028Q42.4443 6.08293 42.5832 6.34271Q42.722 6.60249 42.848 6.86877Q42.9739 7.13504 43.0866 7.40718Q43.1993 7.67932 43.2986 7.95666Q43.3978 8.234 43.4833 8.51587Q43.5688 8.79775 43.6404 9.08348Q43.712 9.36921 43.7694 9.65811Q43.8269 9.94701 43.8701 10.2384Q43.9133 10.5298 43.9422 10.8229Q43.9711 11.116 43.9855 11.4102Q44 11.7044 44 11.999L44 32.001Q44 32.2956 43.9855 32.5898Q43.9711 32.884 43.9422 33.1771Q43.9133 33.4702 43.8701 33.7616Q43.8269 34.053 43.7694 34.3419Q43.712 34.6308 43.6404 34.9165Q43.5688 35.2022 43.4833 35.4841Q43.3978 35.766 43.2986 36.0433Q43.1993 36.3207 43.0866 36.5928Q42.9739 36.865 42.848 37.1312Q42.722 37.3975 42.5832 37.6573Q42.4443 37.9171 42.2929 38.1697Q42.1414 38.4224 41.9778 38.6673Q41.8142 38.9122 41.6387 39.1488Q41.4632 39.3854 41.2764 39.6131Q41.0895 39.8408 40.8917 40.059Q40.6939 40.2773 40.4856 40.4856Q40.2773 40.6939 40.059 40.8917Q39.8408 41.0895 39.6131 41.2764Q39.3854 41.4632 39.1488 41.6387Q38.9122 41.8142 38.6673 41.9778Q38.4224 42.1414 38.1697 42.2929Q37.9171 42.4443 37.6573 42.5832Q37.3975 42.722 37.1312 42.848Q36.865 42.9739 36.5928 43.0866Q36.3207 43.1993 36.0433 43.2986Q35.766 43.3978 35.4841 43.4833Q35.2022 43.5688 34.9165 43.6404Q34.6308 43.712 34.3419 43.7694Q34.053 43.8269 33.7616 43.8701Q33.4702 43.9133 33.1771 43.9422Q32.884 43.9711 32.5898 43.9855Q32.2956 44 32.001 44L11.999 44Q11.7044 44 11.4102 43.9855Q11.116 43.9711 10.8229 43.9422Q10.5298 43.9133 10.2384 43.8701Q9.94701 43.8269 9.65811 43.7694Q9.36921 43.712 9.08348 43.6404Q8.79775 43.5688 8.51587 43.4833Q8.234 43.3978 7.95666 43.2986Q7.67932 43.1993 7.40718 43.0866Q7.13504 42.9739 6.86877 42.848Q6.60249 42.722 6.34271 42.5832Q6.08293 42.4443 5.83028 42.2929Q5.57763 42.1414 5.33271 41.9778Q5.0878 41.8142 4.8512 41.6387Q4.61461 41.4632 4.38691 41.2764Q4.15922 41.0895 3.94096 40.8917Q3.72271 40.6939 3.51443 40.4856Q3.30614 40.2773 3.10833 40.059Q2.91051 39.8408 2.72365 39.6131Q2.53678 39.3854 2.36131 39.1488Q2.18584 38.9122 2.0222 38.6673Q1.85855 38.4224 1.70711 38.1697Q1.55568 37.9171 1.41683 37.6573Q1.27797 37.3975 1.15203 37.1312Q1.02609 36.865 0.913369 36.5928Q0.800647 36.3207 0.701413 36.0433Q0.602179 35.766 0.516673 35.4841Q0.431167 35.2022 0.359595 34.9165Q0.288023 34.6308 0.230557 34.3419Q0.173092 34.053 0.129871 33.7616Q0.0866503 33.4702 0.0577785 33.1771Q0.0289066 32.884 0.0144533 32.5898Q0 32.2956 0 32.001L0 11.999Q0 11.7044 0.0144533 11.4102Q0.0289066 11.116 0.0577785 10.8229Q0.0866503 10.5298 0.129871 10.2384Q0.173092 9.94701 0.230557 9.65811Q0.288023 9.36921 0.359595 9.08348Q0.431167 8.79775 0.516673 8.51587Q0.602179 8.234 0.701413 7.95666Q0.800647 7.67932 0.913369 7.40718Q1.02609 7.13504 1.15203 6.86877Q1.27797 6.60249 1.41683 6.34271Q1.55568 6.08293 1.70711 5.83028Q1.85855 5.57763 2.0222 5.33271Q2.18584 5.0878 2.36131 4.8512Q2.53678 4.61461 2.72365 4.38691Q2.91051 4.15922 3.10833 3.94096Q3.30614 3.72271 3.51443 3.51443Q3.72271 3.30614 3.94096 3.10833Q4.15922 2.91051 4.38691 2.72365Q4.61461 2.53678 4.8512 2.36131Q5.0878 2.18584 5.33271 2.0222Q5.57763 1.85855 5.83028 1.70711Q6.08293 1.55568 6.34271 1.41683Q6.60249 1.27797 6.86877 1.15203Q7.13504 1.02609 7.40718 0.913369Q7.67932 0.800647 7.95666 0.701413Q8.234 0.602179 8.51587 0.516673Q8.79775 0.431167 9.08348 0.359595Q9.36921 0.288023 9.65811 0.230557Q9.94701 0.173092 10.2384 0.129871Q10.5298 0.0866503 10.8229 0.0577785Q11.116 0.0289066 11.4102 0.0144533Q11.7044 0 11.999 0Z" id="Rectangle-3" fill="url(#gradient_1)" fill-rule="evenodd" stroke="none" />
    <g id="card" transform="translate(9 13)">
      <path d="M3.96307 4.90909L8.71875 4.90909C9.15627 4.90909 9.51136 5.27564 9.51136 5.72727C9.51136 6.17891 9.15627 6.54545 8.71875 6.54545L3.96307 6.54545C3.52555 6.54545 3.17045 6.17891 3.17045 5.72727C3.17045 5.27564 3.52555 4.90909 3.96307 4.90909ZM16.6449 3.27273C17.2568 3.27273 17.8084 3.51818 18.2301 3.90927C18.6518 3.51818 19.2034 3.27273 19.8153 3.27273C21.1279 3.27273 22.1932 4.37236 22.1932 5.72727C22.1932 7.08218 21.1279 8.18182 19.8153 8.18182C19.2034 8.18182 18.6518 7.93636 18.2301 7.54527C17.8084 7.93636 17.2568 8.18182 16.6449 8.18182C15.3323 8.18182 14.267 7.08218 14.267 5.72727C14.267 4.37236 15.3323 3.27273 16.6449 3.27273ZM0 9.81818C0 10.7215 0.711767 11.4545 1.58523 11.4545L23.7784 11.4545C24.6535 11.4545 25.3636 10.7215 25.3636 9.81818L25.3636 0L0 0L0 9.81818L0 9.81818Z" transform="translate(0 6.5454545)" id="Fill-1" fill="#FFFFFF" fill-rule="evenodd" stroke="none" />
      <path d="M23.7784 0L1.58523 0C0.711767 0 0 0.551045 0 1.22727L0 2.45455L25.3636 2.45455L25.3636 1.22727C25.3636 0.551045 24.6535 0 23.7784 0" id="Fill-3" fill="#FFFFFF" fill-rule="evenodd" stroke="none" />
    </g>
  </g>
</svg>