<?xml version="1.0" encoding="utf-8"?>
<svg width="12px" height="16px" viewbox="0 0 12 14" version="1.1" xmlns:xlink="http://www.w3.org/1999/xlink" xmlns="http://www.w3.org/2000/svg">
  <path d="M0.502192 9.00414C0.23002 8.999 0.00522684 9.21545 8.89117e-05 9.48758C-0.00249729 9.62383 0.0514337 9.75507 0.149089 9.8501L6.15185 15.8529C6.24316 15.9457 6.36743 15.9985 6.4976 16C6.63029 16.0005 6.7576 15.9474 6.85071 15.8529L12.8535 9.8501C13.0485 9.6602 13.0526 9.34817 12.8627 9.15314C12.7695 9.05741 12.6413 9.00362 12.5077 9.00414L9.90357 9.00414C9.70043 9.00414 9.53574 8.83945 9.53574 8.63631L9.53574 0.492862C9.53574 0.220655 9.31509 0 9.04288 0L3.97436 0C3.70216 0 3.4815 0.220655 3.4815 0.492862L3.4815 8.63631C3.4815 8.83945 3.31681 9.00414 3.11367 9.00414L0.502192 9.00414" id="arrow" fill="#FF3636" fill-rule="evenodd" stroke="none" />
</svg>