<?xml version="1.0" encoding="utf-8"?>
<svg width="296px" height="127px" viewbox="0 0 296 127" version="1.1" xmlns:xlink="http://www.w3.org/1999/xlink" xmlns="http://www.w3.org/2000/svg">
  <defs>
    <linearGradient x1="0.81171876" y1="0.3922892" x2="0.29145953" y2="0.76211166" id="gradient_1">
      <stop offset="0" stop-color="#FFBF45" />
      <stop offset="1" stop-color="#FF850B" />
    </linearGradient>
  </defs>
  <path d="M0 64.4013C0 64.4013 2.37497 3.72417 5.26645 1.40132C12.6389 -4.52127 21.408 9.57576 32.351 20.4013C41.7324 29.682 53.5553 35.4782 57.9309 36.4013C80.0078 41.0591 82.1565 64.4013 93.7427 60.4013C105.329 56.4013 120.24 34.4013 128.501 34.4013C135.558 34.4013 145.354 43.4013 152.727 41.4013C157.752 40.0383 169.479 27.4013 181.166 20.4013C192.852 13.4013 206.842 8.12453 208.902 9.40132C209.16 9.561 214.24 11.5348 218.934 17.4013C227.723 28.3867 239.47 46.3212 246.018 44.4013C263.071 39.4013 299.384 15.6473 300.187 17.4013C306.29 30.7245 320.25 131.401 320.25 131.401L2.10658 151.401L0 64.4013Z" transform="translate(-5.25 1)" id="Path-2" fill="url(#gradient_1)" fill-opacity="0.8" fill-rule="evenodd" stroke="none" />
</svg>