<?xml version="1.0" encoding="utf-8"?>
<svg width="12px" height="12px" viewbox="0 0 12 14" version="1.1" xmlns:xlink="http://www.w3.org/1999/xlink" xmlns="http://www.w3.org/2000/svg">
  <path d="M0.439418 7.87862C0.201267 7.87412 0.00457349 8.06352 7.77977e-05 8.30164C-0.00218513 8.42085 0.0450045 8.53568 0.130453 8.61884L5.38287 13.8713C5.46276 13.9524 5.5715 13.9987 5.6854 14C5.80151 14.0004 5.9129 13.954 5.99437 13.8713L11.2468 8.61884C11.4174 8.45268 11.421 8.17965 11.2549 8.00899C11.1733 7.92524 11.0612 7.87817 10.9442 7.87862L8.66562 7.87862C8.48788 7.87862 8.34377 7.73452 8.34377 7.55677L8.34377 0.431254C8.34377 0.193073 8.1507 0 7.91252 0L3.47757 0C3.23939 0 3.04631 0.193073 3.04631 0.431254L3.04631 7.55677C3.04631 7.73452 2.90221 7.87862 2.72447 7.87862L0.439418 7.87862" transform="matrix(1 0 0 -1 0 14)" id="Fill-1" fill="#0ED198" fill-rule="evenodd" stroke="none" />
</svg>